<svg xmlns="http://www.w3.org/2000/svg" viewBox="0 0 800 600" width="100%" height="100%">
  <defs>
    <radialGradient id="nebula1" cx="30%" cy="30%" r="60%">
      <stop offset="0%" stop-color="rgba(124, 58, 237, 0.6)" />
      <stop offset="100%" stop-color="rgba(15, 23, 42, 0.1)" />
    </radialGradient>
    <radialGradient id="nebula2" cx="70%" cy="70%" r="60%">
      <stop offset="0%" stop-color="rgba(245, 158, 11, 0.5)" />
      <stop offset="100%" stop-color="rgba(15, 23, 42, 0.1)" />
    </radialGradient>
  </defs>
  <rect width="800" height="600" fill="#0f172a" />
  <rect width="800" height="600" fill="url(#nebula1)" />
  <rect width="800" height="600" fill="url(#nebula2)" />
  
  <!-- Stars -->
  <g fill="#ffffff" opacity="0.8">
    <circle cx="100" cy="150" r="2" />
    <circle cx="200" cy="80" r="1.5" />
    <circle cx="350" cy="250" r="2.5" />
    <circle cx="500" cy="120" r="1" />
    <circle cx="700" cy="200" r="2" />
    <circle cx="650" cy="400" r="1.5" />
    <circle cx="450" cy="450" r="2" />
    <circle cx="250" cy="500" r="1" />
    <circle cx="150" cy="350" r="2.5" />
  </g>
  
  <!-- Constellation Lines -->
  <g stroke="#ffffff" stroke-width="0.5" opacity="0.3">
    <line x1="100" y1="150" x2="200" y2="80" />
    <line x1="200" y1="80" x2="350" y2="250" />
    <line x1="350" y1="250" x2="150" y2="350" />
    <line x1="700" y1="200" x2="500" y2="120" />
    <line x1="500" y1="120" x2="650" y2="400" />
  </g>
</svg>