<svg xmlns="http://www.w3.org/2000/svg" viewBox="0 0 500 500" width="100%" height="100%">
  <defs>
    <radialGradient id="glow" cx="50%" cy="50%" r="50%">
      <stop offset="0%" stop-color="rgba(124, 58, 237, 0.4)" />
      <stop offset="100%" stop-color="rgba(15, 23, 42, 0)" />
    </radialGradient>
  </defs>
  <rect width="500" height="500" fill="transparent" />
  <circle cx="250" cy="250" r="220" fill="url(#glow)" />
  <circle cx="250" cy="250" r="200" fill="none" stroke="#f59e0b" stroke-width="2" stroke-dasharray="10 5" opacity="0.6" />
  <circle cx="250" cy="250" r="180" fill="none" stroke="#6366f1" stroke-width="1" opacity="0.8" />
  <circle cx="250" cy="250" r="160" fill="none" stroke="#f59e0b" stroke-width="1" opacity="0.4" />
  
  <g stroke="#8b5cf6" stroke-width="1.5" opacity="0.7">
    <line x1="50" y1="250" x2="450" y2="250" />
    <line x1="250" y1="50" x2="250" y2="450" />
    <line x1="108" y1="108" x2="392" y2="392" />
    <line x1="108" y1="392" x2="392" y2="108" />
  </g>
  
  <!-- Outer planets -->
  <g fill="#f59e0b">
    <circle cx="250" cy="50" r="8" />
    <circle cx="400" cy="110" r="5" />
    <circle cx="450" cy="250" r="6" />
    <circle cx="390" cy="390" r="9" />
    <circle cx="250" cy="450" r="7" />
    <circle cx="110" cy="400" r="5" />
    <circle cx="50" cy="250" r="6" />
    <circle cx="100" cy="100" r="8" />
  </g>
  
  <path d="M 250 50 Q 450 250 250 450 Q 50 250 250 50" fill="none" stroke="#f59e0b" stroke-width="2" opacity="0.5" />
</svg>